<svg width="1117" height="128" viewBox="0 0 1117 128" fill="none" xmlns="http://www.w3.org/2000/svg">
<path d="M188.276 29.5573L190.561 29.8231L192.794 30.2484L194.867 30.7267L196.834 31.3646L198.747 32.1088L200.448 32.9593L202.096 33.9161L203.584 35.0323L205.02 36.2017L206.295 37.4775L207.465 38.9127L208.528 40.401L209.485 42.0488L210.335 43.8029L211.026 45.6634L211.664 47.6301L212.142 49.7032L212.568 51.8825L212.834 54.2213L212.993 56.6133L213.046 59.1116V60.3342L212.993 60.8658L212.78 61.9289L212.568 62.8857L212.408 63.3109L212.036 64.1082L211.824 64.4272L211.558 64.7461L211.345 65.065L211.026 65.3308L210.76 65.5966L210.442 65.756L210.123 65.9687L209.75 66.1281L209.325 66.2344L208.953 66.3407L208.103 66.447H160.795V66.075H160.688V75.8555L160.741 77.1312L160.901 78.407L161.06 79.6295L161.379 80.799L161.751 81.8621L162.23 82.9252L162.761 83.8288L163.399 84.7856L164.09 85.5829L164.887 86.4334L165.791 87.1244L166.748 87.8154L167.811 88.4001L168.927 88.9849L170.15 89.4633L171.426 89.9417L172.861 90.2606L174.296 90.6327L175.891 90.8984L177.538 91.0579L179.239 91.2174L181.047 91.3237L182.96 91.3768H183.651L184.342 91.3237H185.033L185.671 91.2705H186.362L187.638 91.1642L188.86 91.0579L189.445 91.0048L190.03 90.8984L191.146 90.739L191.678 90.6858L192.209 90.5795L193.751 90.2606L194.229 90.1011L194.708 89.9948L195.133 89.8353L195.611 89.6759L196.036 89.5164L196.302 89.4633L197.1 89.1443L197.418 88.9849L197.737 88.8785L198.375 88.5596L199.492 87.9749L199.917 87.7623L200.289 87.4965L201.192 87.0181L201.618 86.7523L202.096 86.4866L202.575 86.1676L203.584 85.4766L204.116 85.1577L204.648 84.7856L205.232 84.4135L205.87 83.7756L206.561 83.2441L206.88 82.9783L207.146 82.7657L207.465 82.5531L207.731 82.2873L208.209 81.9152L208.741 81.5963L208.953 81.4368L209.166 81.3305L209.378 81.171L209.75 81.0116L209.91 80.9584L210.123 80.9053L210.229 80.8521L210.495 80.799H210.973L211.505 80.8521L212.302 81.0116L212.515 81.1179L212.887 81.3305L213.099 81.49L213.578 81.9684L213.737 82.181L213.95 82.6062L214.003 82.872L214.109 83.1378L214.162 83.4567L214.269 83.9883V85.0514L214.216 85.4235L214.162 85.7424L214.109 86.1145L213.79 87.1776L213.631 87.4965L213.418 87.8686L213.259 88.2407L213.046 88.6128L212.78 88.9849L212.515 89.3038L211.983 90.048L211.292 90.739L210.601 91.4831L209.75 92.2273L209.272 92.5463L208.847 92.9715L208.05 93.5031L207.252 94.0878L205.551 95.1509L204.648 95.6293L203.691 96.1077L202.734 96.5329L201.724 96.905L200.714 97.3302L199.598 97.7023L197.365 98.3402L196.196 98.6059L194.973 98.8717L192.475 99.3501L189.817 99.6691L187.053 99.8817L185.618 99.9348L184.13 99.988H180.09L177.592 99.8285L175.2 99.6159L172.967 99.2438L170.788 98.8717L168.768 98.3933L166.854 97.8086L165.047 97.1176L163.399 96.3203L161.804 95.4698L160.369 94.513L158.987 93.4499L157.818 92.3336L156.702 91.1111L155.692 89.7822L154.841 88.4001L154.097 86.8586L153.406 85.3171L152.874 83.6162L152.502 81.8089L152.183 79.9485L152.024 77.9817L151.971 75.9087V50.8726L152.024 50.1284L152.077 49.4905L152.13 48.7995L152.343 47.4175L152.555 46.7265L152.715 46.0886L153.14 44.8129L153.672 43.5372L154.31 42.3146L154.629 41.7299L155.001 41.092L155.426 40.5605L155.851 39.9758L156.276 39.4442L156.755 38.8595L157.765 37.7964L158.987 36.5738L160.582 35.2981L161.379 34.7134L162.283 34.1287L163.187 33.5971L164.09 33.1187L165.047 32.6403L167.067 31.7899L168.13 31.4178L170.362 30.7799L171.532 30.5141L172.754 30.2484L173.924 30.0357L175.2 29.8763L176.475 29.6636L177.751 29.5573L179.08 29.451L181.844 29.3447H183.279L185.777 29.3979L188.276 29.5573ZM177.432 38.0622L175.253 38.4343L173.18 38.9658L171.16 39.6568L169.193 40.4542L167.333 41.4109L165.632 42.7398L164.196 44.1219L162.974 45.6102L161.964 47.2049L161.273 48.8527L160.848 50.5536L160.688 52.4141V57.517H204.222L203.744 52.3078L202.415 47.8959L200.129 44.2282L196.94 41.4109L192.9 39.391L187.851 38.1685L181.95 37.7964L179.665 37.8495L177.432 38.0622Z" fill="white"/>
<path d="M569.877 29.5573L572.163 29.8231L574.395 30.2484L576.468 30.7267L578.435 31.3646L580.295 32.1088L582.05 32.9593L583.697 33.9161L585.239 35.0323L586.621 36.2017L587.897 37.4775L589.066 38.9127L590.182 40.401L591.086 42.0488L591.936 43.8029L592.681 45.6634L593.265 47.6301L593.797 49.7032L594.169 51.8825L594.435 54.2213L594.594 56.6133L594.647 59.1116V59.7495L594.594 60.3342L594.488 61.3973L594.382 61.9289L594.275 62.4073L594.116 62.8857L594.01 63.3109L593.85 63.683L593.637 64.1082L593.425 64.4272L592.893 65.065L592.362 65.5966L591.671 65.9687L590.98 66.2344L590.554 66.3407L589.704 66.447L542.289 66.5002V75.8555L542.343 77.1312L542.449 78.407L542.662 79.6295L542.981 80.799L543.353 81.8621L543.778 82.9252L544.363 83.8288L544.947 84.7856L545.691 85.5829L546.489 86.4334L547.392 87.1244L548.349 87.8154L549.359 88.4001L550.529 88.9849L551.751 89.4633L553.027 89.9417L554.409 90.2606L555.897 90.6327L557.492 90.8984L559.14 91.0579L560.841 91.2174L562.648 91.3237L564.562 91.3768H565.253L565.944 91.3237H566.635L567.963 91.2705L569.239 91.1642L570.409 91.0579L571.046 91.0048L571.631 90.8984L573.279 90.6858L574.342 90.4732L575.352 90.2606L575.83 90.1011L576.309 89.9948L576.787 89.8353L577.212 89.6759L577.903 89.4633L578.116 89.3569L578.435 89.2506L578.701 89.1443L579.02 88.9849L579.286 88.8785L579.658 88.7191L580.721 88.1875L581.465 87.7623L581.89 87.4965L582.315 87.2839L582.741 87.0181L583.697 86.4866L584.654 85.8487L585.717 85.1577L586.249 84.7856L586.834 84.4135L587.152 84.0946L587.525 83.7756L587.79 83.5099L588.162 83.2441L588.428 82.9783L588.747 82.7657L589.332 82.2873L589.598 82.1278L589.863 81.9152L590.076 81.7558L590.342 81.5963L590.554 81.4368L590.767 81.3305L590.98 81.171L591.352 81.0116L591.99 80.799H592.84L593.159 80.8521L593.637 80.9584L593.903 81.0116L594.541 81.3305L595.179 81.9684L595.338 82.181L595.551 82.6062L595.604 82.872L595.71 83.1378L595.817 83.7225L595.87 83.9883V85.0514L595.817 85.4235L595.764 85.7424L595.71 86.1145L595.498 86.8586L595.392 87.1776L595.232 87.4965L595.019 87.8686L594.86 88.2407L594.382 88.9849L594.116 89.3038L593.85 89.6759L593.265 90.42L592.149 91.4831L590.926 92.5463L590.448 92.9715L588.853 94.0878L588.056 94.6193L587.152 95.1509L586.249 95.6293L585.292 96.1077L584.335 96.5329L583.325 96.905L582.262 97.3302L581.199 97.7023L578.967 98.3402L577.797 98.6059L576.575 98.8717L575.352 99.0843L574.076 99.3501L571.419 99.6691L568.654 99.8817L565.731 99.988H561.638L559.193 99.8285L556.801 99.6159L554.515 99.2438L552.442 98.8717L550.369 98.3933L548.455 97.8086L546.701 97.1176L544.947 96.3203L543.406 95.4698L541.971 94.513L540.642 93.4499L539.419 92.3336L538.25 91.1111L537.293 89.7822L536.389 88.4001L535.645 86.8586L535.007 85.3171L534.476 83.6162L534.05 81.8089L533.785 79.9485L533.572 77.9817L533.519 75.9087V51.5636L533.572 50.8726V50.1284L533.678 49.4905L533.732 48.7995L533.838 48.1085L534.104 46.7265L534.741 44.8129L535.273 43.5372L535.858 42.3146L536.23 41.7299L536.602 41.092L536.974 40.5605L537.452 39.9758L537.878 39.4442L538.356 38.8595L539.366 37.7964L539.897 37.2648L540.642 36.5738L541.386 35.936L542.183 35.2981L542.981 34.7134L543.884 34.1287L544.788 33.5971L545.691 33.1187L546.701 32.6403L547.658 32.2151L548.668 31.7899L549.731 31.4178L551.964 30.7799L554.303 30.2484L555.525 30.0357L556.748 29.8763L558.077 29.6636L559.352 29.5573L560.681 29.451L563.445 29.3447H564.88L567.432 29.3979L569.877 29.5573ZM559.033 38.0622L556.854 38.4343L554.781 38.9658L552.761 39.6568L550.794 40.4542L548.987 41.4109L547.18 42.7398L545.638 44.1219L544.416 45.6102L543.512 47.2049L542.821 48.8527L542.449 50.5536L542.289 52.4141V57.517H585.824L585.345 52.3078L584.016 47.8959L581.731 44.2282L578.541 41.4109L574.502 39.391L569.452 38.1685L563.552 37.7964L561.266 37.8495L559.033 38.0622Z" fill="white"/>
<path d="M1082.08 0.906675C1081.44 1.54454 1080.8 2.44818 1080.8 3.29866C1080.8 4.84016 1082.61 6.96637 1085.96 10.3683C1099.94 23.8166 1106.96 40.2415 1106.9 60.0684C1106.85 82.0215 1099.46 99.6691 1085.11 113.277C1082.08 115.988 1080.86 118.114 1080.86 119.921C1080.86 120.825 1081.5 121.728 1082.08 122.632C1082.67 123.27 1083.89 123.855 1084.79 123.855C1088.09 123.855 1092.76 119.974 1098.82 112.32C1110.63 97.8618 1115.94 81.8621 1116.26 60.1216C1116.53 38.3279 1109.72 23.5508 1096.33 8.29525C1091.54 2.82026 1087.5 0.0030365 1084.79 0.0030365C1083.89 0.0030365 1082.93 0.321968 1082.08 0.906675V0.906675Z" fill="white"/>
<path d="M663.111 9.35835C669.171 13.9297 672.307 20.3615 672.307 28.2285C672.307 31.843 670.766 33.6503 667.736 33.6503C665.663 33.6503 664.121 31.843 663.218 28.2285C662.633 25.1986 661.41 22.4877 659.922 19.6173C657.158 14.8333 651.364 12.6008 642.274 12.6008C634.354 12.6008 628.879 14.4081 625.584 18.3416C622.554 21.9561 620.747 27.4843 620.747 35.6702V67.2975C620.747 75.5366 622.554 81.2774 625.903 84.8919C629.517 88.8254 635.045 90.8984 642.912 90.8984C654.766 90.8984 661.729 86.6992 663.218 78.4601C663.855 75.4303 664.121 73.8888 664.121 73.623C664.759 71.8157 665.982 70.9121 667.736 70.9121C670.766 70.9121 672.307 72.7194 672.307 76.3339C672.307 83.9883 669.277 89.729 662.845 94.3004C657.689 97.596 651.258 99.4033 642.806 99.4033C633.025 99.4033 625.477 97.2771 619.949 92.7589C613.783 88.5065 610.753 81.2774 610.753 71.8157V33.7566C610.753 13.7171 621.119 3.93652 642.381 3.93652C650.939 3.93652 657.583 5.7438 663.111 9.35835V9.35835Z" fill="white"/>
<path d="M75.5336 34.926C75.5336 31.9493 77.3409 30.7267 80.9554 30.7267H98.6029C101.633 30.7267 103.121 33.4377 103.121 38.3811C108.543 32.6403 114.39 29.1852 120.45 29.1852C125.553 29.1852 129.592 30.7267 132.303 33.7566C135.333 36.7864 136.556 41.092 136.556 45.9291C136.556 49.2779 135.014 51.0852 132.303 51.0852C130.496 51.0852 129.273 49.8626 128.689 47.7364C127.466 43.484 126.882 41.4109 126.563 41.092C125.393 39.019 122.948 37.7964 119.918 37.7964C116.623 37.7964 113.274 39.019 110.457 41.4109C108.649 42.6335 106.204 45.3444 103.121 49.3311V90.1011H119.493C123.107 90.1011 124.968 91.6426 124.968 94.3535C124.968 97.3834 123.107 98.9249 119.493 98.9249H80.5302C76.9156 98.9249 75.1083 97.3834 75.1083 94.6725C75.1083 91.6426 76.9156 90.42 80.5302 90.42H93.9253V90.048H94.0316V39.1784H80.9554C77.3409 39.1784 75.5336 37.6901 75.5336 34.926V34.926Z" fill="white"/>
<path d="M513.905 0.215657L514.224 0.321968L514.542 0.481433L514.808 0.640899L515.127 0.85352L515.818 1.54454L515.978 1.86347L516.19 2.1824L516.35 2.55449L516.456 2.92657L516.669 3.77706L516.881 4.73385L516.934 5.79695V96.2671L516.881 96.6392V97.0113L516.669 97.7023L516.616 97.9681L516.456 98.287L516.35 98.5528L516.031 99.0312L515.659 99.4564L515.393 99.6159L515.18 99.7754L514.915 99.9348L514.383 100.147L514.064 100.254L513.426 100.36L513.054 100.413H512.469L511.778 100.307L511.566 100.254L511.353 100.147L511.141 100.094L510.981 99.988L510.822 99.9348L510.662 99.7754L510.503 99.6691L510.184 99.4033L510.077 99.2438L509.705 98.606L509.652 98.3933L509.546 98.1276L509.493 97.9149L509.386 97.6492V96.5329L509.333 96.3203V96.1077L509.28 95.895V95.4698L509.227 95.204V94.7256L509.174 94.2472V93.9283L509.121 93.7157V92.812L509.067 92.4931V91.8021L508.376 92.2805L507.685 92.7057L506.994 93.1841L505.719 93.9283L505.134 94.3535L504.496 94.7256L503.38 95.3635L502.848 95.6824L502.37 96.0013L501.838 96.2671L500.51 97.0113L499.765 97.4365L499.021 97.7555L498.383 98.0213L498.118 98.1276L497.639 98.3402L497.161 98.4996L496.682 98.606L495.672 98.9249L493.546 99.3501L492.43 99.5096L491.26 99.6691L490.676 99.7754L489.453 99.8817H488.815L488.177 99.9348H487.593L486.955 99.988H484.51L483.394 99.9348L482.33 99.8817L481.267 99.7754L480.257 99.7222L479.194 99.5627L478.237 99.4564L476.271 99.0843L474.463 98.6591L473.507 98.3933L471.806 97.8618L470.105 97.2239L469.307 96.8518L468.51 96.5329L466.278 95.2572L465.587 94.8319L464.842 94.3004L463.354 93.131L462.716 92.5463L462.078 91.8552L461.494 91.2174L460.909 90.5264L460.377 89.7822L459.899 89.038L458.995 87.4965L458.623 86.6992L458.251 85.8487L457.932 84.9982L457.666 84.1477L457.401 83.1909L457.188 82.2342L457.029 81.3305L456.922 80.3206L456.763 79.3106L456.71 78.3007V50.6068L456.763 49.5968L456.922 48.6401L457.029 47.6833L457.188 46.7265L457.613 44.9192L457.879 44.0687L458.198 43.2182L458.517 42.4209L458.942 41.6236L459.314 40.8262L460.271 39.3379L461.334 37.9559L461.866 37.318L463.141 36.0423L464.523 34.8729L465.268 34.3413L467.341 33.0656L468.138 32.6935L469.626 31.9493L471.274 31.3115L472.071 31.0457L473.826 30.5141L475.58 30.0889L479.407 29.451L481.374 29.2916L483.394 29.1852H485.786L487.114 29.2916H488.443L489.081 29.3979L489.719 29.451L490.888 29.5573L492.058 29.77L492.643 29.8231L493.759 30.0357L494.29 30.142L494.769 30.2484L496.257 30.6736L496.735 30.8331L497.214 31.0457L497.639 31.2051L498.118 31.3646L498.543 31.5772L499.021 31.7367L499.5 31.9493L500.031 32.2151L500.935 32.6935L502.476 33.544L502.955 33.8098L504.496 34.8197L505.559 35.5639L506.038 35.936L508.164 37.6369V6.32851L508.217 5.79695V4.73385L508.43 3.77706L508.483 3.35181L508.642 2.92657L508.749 2.55449L508.908 2.1824L509.067 1.86347L509.28 1.54454L509.493 1.33192L509.705 1.06614L509.918 0.85352L510.184 0.640899L510.715 0.321968L511.034 0.215657L511.725 0.0561917L512.044 0.0030365H512.788L513.16 0.0561917L513.905 0.215657ZM483.606 38.4343L482.224 38.5937L480.842 38.7L479.513 38.9658L478.237 39.2316L477.015 39.4974L474.782 40.3478L473.772 40.8262L472.816 41.3578L471.753 42.1551L470.689 43.0056L469.786 43.9092L468.988 44.8129L468.244 45.8228L467.66 46.8859L467.128 47.949L466.703 49.1716L466.437 50.3942L466.224 51.6167L466.171 52.9988V77.0249L466.224 78.407L466.384 79.7359L466.65 80.9584L467.022 82.181L467.5 83.2973L468.138 84.3604L468.829 85.3703L469.679 86.2739L470.583 87.1244L471.646 87.8686L472.816 88.6128L473.826 89.0912L476.058 89.9417L477.228 90.3137L478.397 90.6327L479.673 90.9516L481.002 91.1642L482.384 91.3768L483.819 91.5363L486.795 91.6426L489.294 91.5895L491.633 91.3768L493.918 91.0579L495.034 90.8453L496.098 90.5264L498.118 89.8885L499.021 89.5164L499.765 88.9849L500.616 88.4002L501.413 87.8154L502.264 87.1776L503.167 86.5397L504.018 85.8487L504.975 85.1577L505.878 84.3604L506.835 83.563L508.749 81.8621V46.8328L507.632 45.9823L506.516 45.2381L505.453 44.4939L504.39 43.8029L503.38 43.1651L502.423 42.5804L501.519 41.9957L500.669 41.5173L499.074 40.7731L498.383 40.4542L497.373 40.0821L495.353 39.4442L494.29 39.1784L492.164 38.7532L491.048 38.5937L489.932 38.4874L488.815 38.4343L486.53 38.3811H485.041L483.606 38.4343Z" fill="white"/>
<path d="M1040.03 64.0019C1034.77 62.673 1056.3 37.2648 1018.08 6.86006C1018.08 6.86006 1023.08 22.8066 997.83 58.3675C972.528 93.8751 1009.05 115.031 1009.05 115.031C1009.05 115.031 991.93 105.888 1011.86 73.3572C1015.42 67.457 1020.1 62.1415 1025.9 50.0752C1025.9 50.0752 1031 57.3575 1028.34 73.0383C1024.35 96.7987 1045.72 89.9948 1046.04 90.3137C1053.54 99.0844 1039.88 114.553 1039.03 115.031C1038.17 115.509 1078.04 91.1111 1049.71 54.3277C1047.8 56.2413 1045.3 65.384 1040.03 64.0019V64.0019Z" fill="white"/>
<path d="M718.977 28.5474L719.987 28.6005L720.944 28.7069L721.901 28.76L722.858 28.8663L724.665 29.0789L725.516 29.1852L726.366 29.3979L727.163 29.5042L727.907 29.7168L728.705 29.8763L730.193 30.3015L731.575 30.7268L733.489 31.5241L734.127 31.843L734.711 32.1088L735.243 32.4277L735.828 32.7466L736.465 33.1719L736.997 33.6503L737.582 34.1287L738.645 35.1918L739.602 36.3612L740.452 37.6369L740.824 38.2748L741.568 39.6568L742.206 41.1983L742.472 41.9425L742.685 42.7398L742.95 43.5903L743.163 44.3876L743.322 45.2913L743.429 46.1418L743.641 48.0553L743.695 49.0121L743.801 49.9689V83.2441L743.907 84.7324L743.96 85.1045L744.067 85.7424L744.173 86.0613L744.226 86.3803L744.386 86.965L744.492 87.2307L744.811 87.9749L744.97 88.1875L745.077 88.4001L745.236 88.6128L745.555 88.9849L745.98 89.4101L746.087 89.4633V89.5164H746.246L746.299 89.6227L746.565 89.729L746.671 89.7822L746.937 89.8885L747.097 89.9948L747.309 90.048L747.894 90.2606L748.532 90.5264L749.063 90.739L749.276 90.7921L749.542 90.8985L749.807 91.0579L750.286 91.2174L750.658 91.3768L750.764 91.4832L750.924 91.5895L751.189 91.8021L751.296 91.9084L751.402 92.0679L751.508 92.1742L751.721 92.4931L751.88 92.812L751.934 93.0247L751.987 93.1841L752.093 93.6094V93.822L752.146 94.0346L752.199 94.3004V94.5662L752.253 94.8319V95.9482L752.146 96.214V96.4266L752.093 96.6924L752.04 96.905L751.934 97.1176L751.88 97.3302L751.774 97.4897L751.615 97.7023L751.349 98.0212L751.243 98.1807L751.03 98.287L750.445 98.606L750.02 98.8186L749.488 98.9249L748.957 98.978H747.894L747.734 98.9249H747.522L746.99 98.8186L746.831 98.7123H746.671L746.352 98.606L745.768 98.4465L745.13 98.287L744.864 98.2339L744.651 98.1807L744.386 98.0744L743.269 97.7023L742.897 97.596L742.525 97.4365L741.249 97.0113L740.718 96.7987L740.452 96.7455L740.239 96.6392L739.974 96.5861L739.761 96.5329L739.548 96.4266L739.389 96.3734L739.017 96.2671L738.645 96.1077L738.485 96.0545L738.432 96.0013L738.326 95.9482H737.954L737.794 95.8419L737.635 95.7887L737.422 95.7356L737.316 95.6293L736.997 95.4166L736.838 95.2572L736.731 95.0977L736.572 94.9382L736.465 94.7788L736.359 94.5662L736.2 94.3535L736.093 94.1409L736.04 93.9283L735.881 93.7157L735.774 93.4499L735.615 92.9715L735.296 91.8552L735.19 91.5363L733.967 92.3868L732.798 93.1841L732.266 93.5562L731.203 94.1941L730.672 94.5662L728.864 95.7356L728.439 95.9482L728.067 96.214L726.951 96.8518L726.632 97.0645L725.781 97.4897L725.516 97.596L725.037 97.8086L724.824 97.8618L724.506 98.0744L724.133 98.1807L723.336 98.4465L721.21 98.978L720.785 99.0312L719.828 99.1907L719.349 99.2438L718.871 99.3501L717.383 99.5096L716.32 99.6159H715.788L715.203 99.6691H711.217L710.366 99.6159L708.718 99.5096L707.124 99.3501L706.326 99.2438L705.529 99.0843L704.041 98.8186L702.606 98.4996L701.861 98.287L701.17 98.0744L700.533 97.8618L699.842 97.596L698.566 97.1176L697.928 96.7987L697.343 96.5329L696.759 96.214L696.174 95.8419L695.589 95.5229L695.058 95.1509L693.782 94.3004L692.612 93.2904L692.081 92.7589L691.602 92.2273L691.071 91.6958L689.795 89.9417L689.051 88.6659L688.732 88.0281L688.413 87.3371L688.147 86.6992L687.882 86.0082L687.456 84.573L687.137 83.0846L686.925 81.49L686.819 79.8953V78.1944L686.872 77.397L686.925 76.5465L687.031 75.8024L687.297 74.2077L687.669 72.7194L687.935 71.9752L688.519 70.5932L689.157 69.2111L689.955 67.9354L690.805 66.766L691.284 66.1813L691.815 65.5966L692.878 64.5335L693.463 64.0551L694.685 63.0983L695.377 62.673L697.131 61.3973L698.406 60.7063L699.788 60.0153L700.479 59.7495L701.861 59.1648L702.606 58.899L704.838 58.2612L705.635 58.1017L706.38 57.8891L707.177 57.7828L707.974 57.6233L708.825 57.517L709.622 57.4638L710.473 57.3575L713.024 57.198H714.619L715.31 57.2512H716.054L717.595 57.3575L718.34 57.4638L719.137 57.5701L719.881 57.6764L720.731 57.7828L721.476 57.8891L722.273 58.1017L723.123 58.208L723.921 58.3675L725.622 58.7927L728.226 59.4306L729.077 59.6963L731.788 60.4937L733.701 61.1315L734.605 61.4505V50.1284L734.552 49.5437L734.499 49.0121L734.446 48.3743L734.339 47.8959L734.233 47.3112L734.02 46.7796L733.861 46.2481L733.701 45.7697L733.436 45.2913L733.223 44.8129L732.638 43.9624L732.319 43.484L732 43.1119L731.628 42.6867L730.831 41.9425L730.406 41.5704L729.449 40.9326L728.917 40.6136L727.854 40.0821L727.27 39.7631L726.898 39.6037L726.047 39.2847L724.24 38.7L722.858 38.3811L722.326 38.2748L721.848 38.2216L721.316 38.1153L720.838 38.0622L719.243 37.9027L718.712 37.7964H718.18L717.595 37.7432L717.064 37.6901H713.449L712.12 37.7432L710.845 37.7964L709.622 37.9027L707.39 38.2216L706.326 38.3811L705.317 38.5937L704.413 38.8595L703.509 39.1784L702.659 39.4442L701.861 39.8163L701.117 40.1884L700.426 40.5605L699.788 41.0389L699.15 41.4641L698.619 41.9957L698.141 42.5272L697.662 43.1119L697.237 43.6966L696.918 44.2813L696.599 44.9723L696.333 45.6634L696.121 46.4075L695.961 47.1517L695.908 47.5238L695.802 47.8427L695.589 49.0121L695.483 49.4905L695.43 49.7563L695.377 49.9689L695.323 50.1284V50.341L695.217 50.66L695.164 50.9789L695.111 51.1915V51.2978L695.058 51.4041V51.6699L694.951 51.8294L694.792 52.2015L694.739 52.3078L694.473 52.6267L694.42 52.733L694.26 52.8393L693.994 53.1051L693.888 53.1583L693.782 53.2646L693.622 53.3177L693.463 53.424L692.984 53.5835L692.772 53.6366L692.453 53.743H692.028L691.868 53.7961H691.071L690.752 53.743L690.061 53.6366L689.742 53.5835L688.945 53.2646L688.413 52.9456L688.201 52.733L687.988 52.5735L687.563 52.1483L687.403 51.8825L687.137 51.4041L686.978 51.0852L686.925 50.7663L686.712 50.1284L686.659 49.8095V49.4374L686.606 49.0121V48.1085L686.659 47.577V47.0454L686.765 46.5138L686.819 45.9823L687.031 44.9192L687.297 43.8561L687.456 43.3245L687.616 42.8461L688.041 41.783L688.307 41.2515L688.785 40.2415L689.742 38.7532L690.061 38.2748L690.433 37.7964L691.602 36.3612L692.028 35.8828L692.559 35.2981L693.729 34.235L694.367 33.7566L695.749 32.7998L696.493 32.3746L697.29 31.9493L698.141 31.5241L698.938 31.2051L699.842 30.8331L700.798 30.5141L701.755 30.2484L703.775 29.7168L704.838 29.5042L707.071 29.0789L709.409 28.8132L711.855 28.6005L713.13 28.5474H714.459L715.788 28.4942H716.851L717.914 28.5474H718.977ZM706.167 67.4038L702.552 68.6796L699.682 70.54L697.662 72.8788L696.44 75.7492L696.067 79.1512L696.174 80.9584L696.493 82.6062L697.077 84.2009L697.875 85.6361L698.938 86.965L700.267 88.0281L701.808 88.9317L703.137 89.6227L704.625 90.2606L706.22 90.739L707.921 91.1642L709.728 91.43L711.642 91.5895L713.662 91.6426L715.469 91.5895L717.17 91.4832L718.871 91.2705L720.519 90.8985L722.114 90.5264L723.708 89.9417L725.25 89.2506L726.313 88.6128L727.482 87.8154L728.811 86.965L730.193 86.0082L731.681 84.8919L733.276 83.7225L734.924 82.4999V69.6895L732.054 68.839L729.236 68.0949L726.419 67.5102L723.655 67.0318L720.944 66.6597L718.34 66.4471L715.788 66.3939L710.579 66.6597L706.167 67.4038Z" fill="white"/>
<path d="M5.15609 30.8331H14.9366V22.2751C14.9366 7.39161 22.591 0.0030365 37.4745 0.0030365C43.5341 0.0030365 48.7434 1.22561 52.6768 3.35181C57.7797 6.38166 60.6501 11.3251 60.6501 17.0659C60.6501 20.9462 59.1086 22.4877 56.3977 22.4877C54.5904 22.4877 52.7832 21.2651 51.8264 19.1389C50.6569 15.2586 49.4344 13.1324 48.8497 12.1224C47.0424 9.99622 43.3747 8.77365 38.1655 8.77365C29.0228 8.77365 24.5046 13.2918 24.5046 22.4877V30.7267H42.099C46.0324 30.7267 47.8397 32.2682 47.8397 34.926C47.8397 37.9559 46.0324 39.1784 42.099 39.1784H24.5046V94.8851C24.5046 98.1807 22.9631 99.988 20.2522 99.988C17.2223 99.988 15.9997 98.1807 15.9997 94.8851V39.2847H5.15609C1.80731 39.2847 3.05176e-05 37.7964 3.05176e-05 35.0855C3.05176e-05 32.0025 1.80731 30.8331 5.15609 30.8331V30.8331Z" fill="white"/>
<path d="M418.863 29.5042L422.106 29.9294L425.082 30.5673L427.846 31.3646L430.398 32.3214L432.683 33.4908L434.703 34.8197L436.511 36.3612L438.052 38.0622L439.381 39.9226L440.497 41.9957L441.348 44.2282L441.932 46.6202L442.305 49.2248L442.411 51.9357V76.9718L442.305 79.7359L441.932 82.2873L441.348 84.7324L440.55 86.965L439.487 88.9849L438.212 90.8453L436.67 92.5463L434.916 94.0878L432.896 95.4166L430.664 96.5861L428.165 97.596L425.454 98.3933L422.531 98.978L419.342 99.4564L415.94 99.7222L412.325 99.8285L408.498 99.7754L404.883 99.5627L401.535 99.1375L398.452 98.5528L395.634 97.7555L393.083 96.7987L390.797 95.6293L388.724 94.3004L386.917 92.7589L385.322 91.0579L383.993 89.1443L382.877 87.1244L382.08 84.8388L381.495 82.3936L381.123 79.789L381.017 76.9718V51.9357L381.123 49.2248L381.495 46.6202L382.08 44.2282L382.93 41.9957L383.993 39.9226L385.375 38.0622L386.917 36.3612L388.724 34.8197L390.797 33.4908L393.083 32.3214L395.581 31.3646L398.345 30.5673L401.322 29.9294L404.564 29.5042L408.019 29.1852L411.74 29.1321L415.408 29.1852L418.863 29.5042ZM404.671 38.0622L401.853 38.5937L399.355 39.2847L397.123 40.1884L395.156 41.3046L393.508 42.5804L392.179 44.0687L391.116 45.7697L390.372 47.6301L389.894 49.7032L389.787 51.9357V76.9718L389.894 79.2043L390.372 81.2774L391.116 83.1909L392.232 84.8388L393.614 86.3271L395.262 87.6028L397.229 88.6659L399.515 89.5696L402.119 90.2074L405.043 90.6858L408.232 90.8985H415.142L418.278 90.6858L421.149 90.2606L423.7 89.6227L425.933 88.7722L427.899 87.7091L429.547 86.4866L430.929 84.9982L431.992 83.2973L432.737 81.3837L433.215 79.2575L433.374 76.9718V51.9357L433.215 49.7032L432.737 47.6301L431.992 45.7697L430.929 44.0687L429.494 42.5804L427.846 41.3046L425.826 40.1884L423.488 39.2847L420.883 38.5937L417.959 38.0622L414.664 37.7964L411.102 37.6901L407.754 37.7964L404.671 38.0622Z" fill="white"/>
<path d="M966.787 0.95983C967.425 1.54454 968.01 2.44818 968.01 3.35181C968.01 4.89332 966.202 6.96637 962.854 10.3683C948.927 23.8166 941.91 40.2415 941.964 60.1216C942.017 82.0215 949.405 99.6691 963.757 113.33C966.734 115.988 968.01 118.114 968.01 119.921C968.01 120.825 967.372 121.782 966.787 122.632C966.202 123.27 964.98 123.908 964.076 123.908C960.727 123.908 956.103 119.974 950.043 112.32C938.243 97.8618 932.927 81.9152 932.608 60.1216C932.342 38.3279 939.146 23.5508 952.541 8.29525C957.325 2.87342 961.365 0.0030365 964.076 0.0030365C964.98 0.0030365 965.883 0.321968 966.787 0.95983V0.95983Z" fill="white"/>
<path d="M795.149 36.8927C797.541 33.8629 799.667 32.0025 801.793 31.152C803.866 29.9294 806.896 29.3447 810.298 29.3447C820.717 29.3447 826.138 34.4476 826.138 44.4939V93.8751C826.138 98.0744 824.65 99.9348 821.62 99.9348C818.59 99.9348 817.368 98.0744 817.368 93.8751V47.6301C817.368 41.3046 814.657 37.9027 809.448 37.9027C805.514 37.9027 801.474 40.2947 798.179 44.9192V94.3004C798.179 98.4996 796.637 100.307 793.926 100.307C791.215 100.307 789.674 98.4996 789.674 94.3004V48.64C789.674 41.5704 786.697 38.2748 781.116 38.2748C777.501 38.2748 774.099 40.7199 770.485 45.3444V94.3535C770.485 98.6059 768.943 100.413 765.913 100.413C762.884 100.413 761.714 98.6059 761.714 94.3535V33.8629C761.714 30.8331 762.884 29.6105 765.329 29.6105C766.551 29.6105 767.721 30.5141 768.359 32.3214C768.943 33.1187 769.262 34.6602 769.262 36.4675C772.08 33.4377 773.887 31.6304 774.684 30.9925C776.491 29.8231 778.936 29.1852 782.338 29.1852C787.176 29.1852 791.481 31.6304 795.149 36.8927V36.8927Z" fill="white"/>
<path d="M264.66 29.5573L266.999 29.8231L269.178 30.2484L271.304 30.7267L273.271 31.3646L275.131 32.1088L276.886 32.9593L278.533 33.9161L280.022 35.0323L281.457 36.2017L282.733 37.4775L283.902 38.9127L284.965 40.401L285.922 42.0488L286.772 43.8029L287.463 45.6634L288.048 47.6301L288.58 49.7032L288.952 51.8825L289.271 54.2213L289.43 56.6133L289.483 59.1116V59.7495L289.43 60.3342L289.377 60.8658L289.218 61.9289L289.111 62.4073L288.952 62.8857L288.845 63.3109L288.42 64.1082L288.261 64.4272L287.729 65.065L287.463 65.3308L287.144 65.5966L286.879 65.756L286.507 65.9687L286.135 66.1281L285.39 66.3407L284.965 66.3939L284.487 66.447H237.232V66.075H237.125V75.8555L237.179 77.1312L237.285 78.407L237.498 79.6295L237.816 80.799L238.135 81.8621L238.614 82.9252L239.145 83.8288L239.783 84.7856L240.527 85.5829L241.325 86.4334L242.175 87.1244L243.132 87.8154L244.195 88.4001L245.364 88.9849L246.534 89.4633L247.863 89.9417L249.245 90.2606L250.733 90.6327L252.275 90.8984L253.922 91.0579L255.677 91.2174L257.484 91.3237L259.397 91.3768H260.088L260.78 91.3237H261.417L262.108 91.2705H262.746L264.022 91.1642L265.245 91.0579L265.829 91.0048L266.467 90.8984L268.115 90.6858L268.646 90.5795L269.125 90.4732L269.656 90.3669L270.135 90.2606L270.666 90.1011L271.145 89.9948L271.995 89.6759L272.474 89.5164L272.686 89.4633L272.952 89.3569L273.271 89.2506L273.537 89.1443L273.803 88.9849L274.121 88.8785L274.44 88.7191L274.812 88.5596L275.557 88.1875L276.301 87.7623L276.726 87.4965L277.151 87.2839L277.577 87.0181L278.533 86.4866L278.959 86.1676L279.969 85.4766L280.5 85.1577L281.085 84.7856L281.616 84.4135L282.307 83.7756L282.998 83.2441L283.264 82.9783L283.583 82.7657L283.849 82.5531L284.168 82.2873L284.646 81.9152L285.125 81.5963L285.39 81.4368L285.603 81.3305L285.816 81.171L286.188 81.0116L286.666 80.8521L286.932 80.799H287.41L287.942 80.8521L288.739 81.0116L288.952 81.1179L289.324 81.3305L289.536 81.49L290.015 81.9684L290.174 82.181L290.387 82.6062L290.493 83.1378L290.6 83.4567V83.7225L290.653 83.9883V84.3604L290.706 84.7324L290.653 85.0514V85.4235L290.6 85.7424L290.546 86.1145L290.174 87.1776L290.015 87.4965L289.696 88.2407L289.218 88.9849L288.952 89.3038L288.367 90.048L287.729 90.739L286.985 91.4831L286.135 92.2273L285.709 92.5463L285.284 92.9715L284.487 93.5031L283.689 94.0878L281.988 95.1509L281.085 95.6293L280.128 96.1077L279.171 96.5329L278.161 96.905L277.098 97.3302L276.035 97.7023L274.919 98.0212L273.749 98.3402L271.411 98.8717L268.912 99.3501L266.254 99.6691L263.49 99.8817L260.567 99.988H256.474L253.976 99.8285L251.637 99.6159L249.351 99.2438L247.225 98.8717L245.205 98.3933L243.291 97.8086L241.484 97.1176L239.783 96.3203L238.242 95.4698L236.806 94.513L235.424 93.4499L234.202 92.3336L233.086 91.1111L232.076 89.7822L231.225 88.4001L230.481 86.8586L229.843 85.3171L229.312 83.6162L228.886 81.8089L228.567 79.9485L228.408 77.9817L228.355 75.9087V50.8726L228.408 50.1284L228.461 49.4905L228.78 47.4175L228.94 46.7265L229.099 46.0886L229.365 45.4507L229.79 44.175L230.109 43.5372L230.694 42.3146L231.066 41.7299L231.438 41.092L231.81 40.5605L232.235 39.9758L232.714 39.4442L233.192 38.8595L234.149 37.7964L234.68 37.2648L235.424 36.5738L236.966 35.2981L238.667 34.1287L239.571 33.5971L241.484 32.6403L243.504 31.7899L244.567 31.4178L246.8 30.7799L249.138 30.2484L250.361 30.0357L251.584 29.8763L252.859 29.6636L254.135 29.5573L255.517 29.451L258.281 29.3447H259.663L262.215 29.3979L264.66 29.5573ZM253.816 38.0622L251.69 38.4343L249.564 38.9658L247.544 39.6568L245.63 40.4542L243.77 41.4109L241.963 42.7398L240.474 44.1219L239.252 45.6102L238.348 47.2049L237.657 48.8527L237.232 50.5536L237.125 52.4141V57.517H280.606L280.181 52.3078L278.799 47.8959L276.567 44.2282L273.377 41.4109L269.284 39.391L264.288 38.1685L258.388 37.7964L256.049 37.8495L253.816 38.0622Z" fill="white"/>
<path d="M357.947 9.35835C364.007 13.9297 367.143 20.3615 367.143 28.2285C367.143 31.843 365.602 33.6503 362.572 33.6503C360.445 33.6503 358.957 31.843 358.054 28.2285C357.416 25.1986 356.246 22.4877 354.758 19.6173C351.994 14.8333 346.2 12.6008 337.11 12.6008C329.137 12.6008 323.715 14.4081 320.42 18.3416C317.39 21.9561 315.529 27.4843 315.529 35.6702V67.2975C315.529 75.5366 317.39 81.2774 320.685 84.8919C324.3 88.8254 329.881 90.8984 337.748 90.8984C349.602 90.8984 356.565 86.6992 358.054 78.4601C358.638 75.4303 358.957 73.8888 358.957 73.623C359.542 71.8157 360.764 70.9121 362.572 70.9121C365.602 70.9121 367.143 72.7194 367.143 76.3339C367.143 83.9883 364.06 89.729 357.628 94.3004C352.525 97.596 346.04 99.4033 337.589 99.4033C327.861 99.4033 320.313 97.2771 314.732 92.7589C308.3 88.5065 305.589 81.2774 305.589 71.8157V33.7566C305.589 13.7171 315.848 3.93652 337.217 3.93652C345.775 3.93652 352.419 5.7438 357.947 9.35835V9.35835Z" fill="white"/>
<path d="M844.052 28.8663L844.69 29.0789L844.849 29.1852L845.008 29.2384L845.168 29.3979L845.487 29.6105L845.646 29.7699L845.806 29.8763L846.337 30.6204L846.656 31.0457L846.763 31.3114L846.869 31.5241L846.922 31.7367L847.028 32.2151L847.081 32.4277L847.188 32.6403L847.241 32.9061L847.294 33.1187L847.4 33.3313L847.454 33.5971L847.719 34.235L847.826 34.5008L847.985 34.926L848.038 35.1918L848.198 35.8296L848.304 36.0423L848.41 36.4675L849.739 35.8296L852.344 34.6071L853.62 34.0224L854.842 33.4908L857.287 32.534L858.457 32.1088L859.573 31.6835L860.689 31.3114L861.752 30.9925L862.815 30.6204L863.879 30.3547L865.898 29.8763L866.908 29.6636L868.716 29.3447L869.619 29.2384L871.32 29.1321H872.171L874.616 29.1852L876.955 29.3447L879.24 29.5573L881.313 29.8763L883.333 30.3547L885.247 30.8862L887.001 31.5241L888.649 32.2682L890.19 33.0656L891.626 33.9692L892.954 35.0323L894.124 36.0954L895.24 37.318L896.197 38.5937L897.047 39.9758L897.792 41.4641L898.429 43.0588L898.908 44.7066L899.333 46.4607L899.652 48.3211L899.811 50.2347L899.865 52.2546V77.5565L899.811 78.5664L899.758 79.5232L899.705 80.4269L899.546 81.3837L899.439 82.2873L899.014 83.9883L898.748 84.8387L898.483 85.6361L897.845 87.2307L897.419 87.9749L897.047 88.7191L896.569 89.4633L896.091 90.1543L895.612 90.7921L895.081 91.4831L894.496 92.121L893.858 92.7589L893.273 93.3967L891.891 94.5662L890.616 95.5229L889.234 96.3734L888.489 96.7455L887.798 97.1176L887.001 97.4897L886.204 97.8086L885.406 98.0744L883.705 98.6591L881.951 99.0843L881.048 99.297L879.134 99.6159L877.22 99.8285L876.211 99.9348L875.147 99.988H871.799L870.523 99.9348L869.247 99.8285L868.025 99.7754L865.579 99.4564L864.41 99.2438L862.071 98.7654L860.955 98.4465L859.839 98.1807L858.722 97.8086L857.606 97.3834L855.48 96.5329L854.417 96.0013L853.407 95.4698L852.344 94.9382L851.334 94.3535L850.324 93.7157L848.41 92.3336V121.516L848.304 122.579L848.251 123.057L848.145 123.536L847.826 124.811L847.666 125.184L847.454 125.556L847.294 125.821L847.081 126.14L846.656 126.672L846.125 127.097L845.806 127.203L845.54 127.363L845.221 127.469L844.902 127.522L844.53 127.576H843.467L843.095 127.469L842.829 127.363L842.51 127.257L841.925 126.938L841.713 126.725L841.447 126.512L841.022 125.981L840.809 125.662L840.65 125.343L840.543 124.971L840.384 124.546L840.171 123.695L840.065 123.164L840.012 122.685L839.959 122.101V34.3413L840.012 33.8629L840.065 33.3313L840.118 32.853L840.171 32.4277L840.278 32.0025L840.437 31.6304L840.543 31.2051L840.809 30.5673L841.022 30.2483L841.181 29.9826L841.394 29.7168L841.607 29.5573L841.872 29.3447L842.085 29.1852L842.351 29.0258L842.935 28.8663L843.254 28.8132H843.733L843.892 28.8663H844.052ZM867.918 38.1153L865.473 38.3279L864.304 38.4874L863.188 38.6469L862.071 38.9126L860.051 39.4442L858.138 40.1884L857.34 40.5605L856.49 40.9857L855.693 41.5173L854.789 42.102L853.938 42.7398L853.035 43.484L852.131 44.2813L851.174 45.1318L850.218 46.0886L849.155 47.0985L848.091 48.1617V82.9252H848.41V82.7657L850.909 84.254L853.301 85.5829L855.693 86.8586L857.925 87.8686L860.104 88.8254L862.231 89.5696L864.251 90.2074L866.164 90.6858L868.025 91.0579L869.832 91.2705L871.533 91.3768L873.021 91.3237L874.456 91.2705L875.838 91.1111L877.114 90.9516L878.443 90.739L879.666 90.4732L880.835 90.1543L881.951 89.7822L883.014 89.3569L884.024 88.8785L884.928 88.347L886.044 87.656L887.001 86.8586L887.905 86.0613L888.649 85.2108L889.287 84.3072L889.818 83.2972L890.243 82.2873L890.562 81.2242L890.828 80.0548L890.935 78.8854L890.988 77.6628V52.4141L890.935 50.9257L890.775 49.5437L890.509 48.3211L890.137 47.0985L889.659 45.9823L889.074 44.9192L888.33 43.9624L887.533 43.0588L886.576 42.2614L885.513 41.4641L884.343 40.8262L883.387 40.3478L882.377 39.8694L881.313 39.5505L880.197 39.1784L879.028 38.9126L877.752 38.6469L876.476 38.4342L875.094 38.2748L873.659 38.1685L872.171 38.1153L870.629 38.0622L869.3 38.1153H867.918Z" fill="white"/>
</svg>
